<?xml version="1.0" encoding="UTF-8"?>
<svg id="Layer_2" data-name="Layer 2" xmlns="http://www.w3.org/2000/svg" viewBox="0 0 63.29 63.29">
  <defs>
    <style>
      .cls-1 {
        fill: #fff;
        stroke-width: 0px;
      }
    </style>
  </defs>
  <g id="Layer_1-2" data-name="Layer 1">
    <g>
      <path class="cls-1" d="M31.64,4c15.24,0,27.64,12.4,27.64,27.64s-12.4,27.64-27.64,27.64S4,46.89,4,31.64,16.4,4,31.64,4M31.64,0C14.17,0,0,14.17,0,31.64s14.17,31.64,31.64,31.64,31.64-14.17,31.64-31.64S49.12,0,31.64,0h0Z"/>
      <path class="cls-1" d="M31.64,0h0c-5.99,0-11.59,1.66-16.36,4.55,13.57.88,24.3,12.15,24.3,25.94s-11.64,26-26,26c-.53,0-1.06-.02-1.59-.05,5.4,4.29,12.22,6.85,19.65,6.85h0c17.48,0,31.64-14.17,31.64-31.64h0C63.29,14.17,49.12,0,31.64,0Z"/>
    </g>
  </g>
</svg>