<?xml version="1.0" encoding="UTF-8"?>
<svg id="Layer_2" data-name="Layer 2" xmlns="http://www.w3.org/2000/svg" viewBox="0 0 430 430">
  <defs>
    <style>
      .cls-1 {
        fill: #477885;
      }

      .cls-1, .cls-2 {
        stroke-width: 0px;
      }

      .cls-2 {
        fill: #fff;
      }
    </style>
  </defs>
  <g id="Layer_1-2" data-name="Layer 1">
    <g>
      <rect class="cls-1" x="0" y="0" width="430" height="430" rx="215" ry="215"/>
      <path class="cls-2" d="M340.19,200.58c-8.69-31.64-22.68-55.06-32.94-69.54-7.76-3.64-16.9-7.35-27.34-10.55-9.62-2.95-18.55-4.92-26.48-6.24-1.4,1.65-3.04,3.86-4.52,6.67-1.54,2.92-2.45,5.61-3.01,7.75-8.86-1.37-19.29-2.37-31-2.37-11.62,0-21.98,1.01-30.79,2.37-.56-2.14-1.48-4.83-3.01-7.75-1.48-2.81-3.12-5.03-4.52-6.67-7.93,1.33-16.86,3.3-26.48,6.24-10.44,3.2-19.58,6.9-27.34,10.55-10.26,14.48-24.25,37.9-32.94,69.54-9.49,34.55-8.62,64.16-6.67,82.46,8.92,6.11,19.61,12.61,32.08,18.73,12.56,6.17,24.32,10.67,34.66,13.99,2.55-3.05,5.29-6.7,7.97-10.98,2.84-4.56,5.01-8.88,6.67-12.7-3.32-1.13-6.85-2.47-10.55-4.09-4.46-1.95-8.48-4-12.06-6.03,1.87-1.44,3.73-2.87,5.6-4.31,13.73,6.23,26,9.65,35.31,11.63,6.59,1.4,17.69,3.69,32.51,3.66,14.52-.03,25.38-2.28,31.86-3.66,9.21-1.96,21.5-5.37,35.31-11.63,1.87,1.44,3.73,2.87,5.6,4.31-3.58,2.02-7.6,4.08-12.06,6.03-3.7,1.62-7.23,2.96-10.55,4.09,1.66,3.82,3.83,8.14,6.67,12.7,2.67,4.28,5.41,7.94,7.97,10.98,10.34-3.33,22.1-7.83,34.66-13.99,12.47-6.12,23.16-12.62,32.08-18.73,1.95-18.3,2.82-47.91-6.67-82.46ZM170.54,251.6c-13.32,0-24.11-11.95-24.11-26.7s10.8-26.7,24.11-26.7,24.11,11.95,24.11,26.7-10.8,26.7-24.11,26.7ZM259.24,251.6c-13.32,0-24.11-11.95-24.11-26.7s10.8-26.7,24.11-26.7,24.11,11.95,24.11,26.7-10.8,26.7-24.11,26.7Z"/>
    </g>
  </g>
</svg>