<?xml version="1.0" encoding="UTF-8"?>
<svg id="Layer_2" data-name="Layer 2" xmlns="http://www.w3.org/2000/svg" viewBox="0 0 63.29 63.29">
  <defs>
    <style>
      .cls-1 {
        fill: #477885;
      }

      .cls-1, .cls-2 {
        stroke-width: 0px;
      }

      .cls-3 {
        fill: none;
        stroke: #fff;
        stroke-miterlimit: 10;
        stroke-width: 3px;
      }

      .cls-2 {
        fill: #fff;
      }
    </style>
  </defs>
  <g id="Layer_1-2" data-name="Layer 1">
    <g>
      <path class="cls-1" d="M31.64,4c15.24,0,27.64,12.4,27.64,27.64s-12.4,27.64-27.64,27.64S4,46.89,4,31.64,16.4,4,31.64,4M31.64,0C14.17,0,0,14.17,0,31.64s14.17,31.64,31.64,31.64,31.64-14.17,31.64-31.64S49.12,0,31.64,0h0Z"/>
      <path class="cls-2" d="M31.64,4c15.24,0,27.64,12.4,27.64,27.64s-12.4,27.64-27.64,27.64S4,46.89,4,31.64,16.4,4,31.64,4M31.64,0C14.17,0,0,14.17,0,31.64s14.17,31.64,31.64,31.64,31.64-14.17,31.64-31.64S49.12,0,31.64,0h0Z"/>
      <rect class="cls-2" x="13.71" y="13.71" width="35.88" height="35.88" rx="17.94" ry="17.94"/>
      <line class="cls-3" x1="31.64" y1="8.14" x2="31.64" y2="55.14"/>
      <line class="cls-3" x1="15.03" y1="15.03" x2="48.26" y2="48.26"/>
      <line class="cls-3" x1="8.14" y1="31.64" x2="55.14" y2="31.64"/>
      <line class="cls-3" x1="15.03" y1="48.26" x2="48.26" y2="15.03"/>
    </g>
  </g>
</svg>