<?xml version="1.0" encoding="UTF-8"?>
<svg id="Layer_2" data-name="Layer 2" xmlns="http://www.w3.org/2000/svg" viewBox="0 0 430 430">
  <defs>
    <style>
      .cls-1 {
        fill: #477885;
      }

      .cls-1, .cls-2 {
        stroke-width: 0px;
      }

      .cls-2 {
        fill: #fff;
      }
    </style>
  </defs>
  <g id="Layer_1-2" data-name="Layer 1">
    <g>
      <rect class="cls-1" x="0" y="0" width="430" height="430" rx="215" ry="215"/>
      <g>
        <path class="cls-2" d="M346,211.53c.02-5.24-.03-10.06-.18-15.84-.47-17.99-1.49-26.66-2.97-34.65-1.93-10.34-3.68-14.38-5.95-17.82-5.44-8.27-13.07-12.05-16.85-13.86-6.2-2.97-11.31-3.89-36.67-4.95-19.79-.82-33.74-.97-35.68-.99-11.85-.11-28.74,0-28.74,0h-7.93s-16.89-.11-28.75,0c-1.94.02-15.89.17-35.68.99-25.36,1.06-30.47,1.98-36.67,4.95-3.77,1.81-11.41,5.58-16.85,13.86-2.26,3.44-4.02,7.48-5.95,17.82-1.49,7.99-2.5,16.66-2.97,34.65-.15,5.77-.2,10.6-.18,15.84v6.93c-.02,5.24.03,10.06.18,15.84.47,17.99,1.49,26.66,2.97,34.65,1.93,10.34,3.68,14.38,5.95,17.82,5.44,8.27,13.07,12.05,16.85,13.86,6.2,2.97,11.31,3.89,36.67,4.95,19.79.82,33.74.97,35.68.99,11.85.11,21.73.07,28.74,0h7.94c7.01.07,16.89.11,28.74,0,1.94-.02,15.89-.17,35.68-.99,25.36-1.06,30.47-1.98,36.67-4.95,3.77-1.81,11.41-5.58,16.85-13.86,2.26-3.44,4.02-7.48,5.95-17.82,1.49-7.99,2.5-16.66,2.97-34.65.15-5.77.2-10.6.18-15.84v-6.93Z"/>
        <polygon class="cls-1" points="189.83 175.14 189.83 254.48 258.5 214.88 189.83 175.14"/>
      </g>
    </g>
  </g>
</svg>