<?xml version="1.0" encoding="UTF-8"?>
<svg id="Layer_2" data-name="Layer 2" xmlns="http://www.w3.org/2000/svg" viewBox="0 0 374 374">
  <defs>
    <style>
      .cls-1 {
        fill: red;
      }

      .cls-1, .cls-2 {
        stroke-width: 0px;
      }

      .cls-2 {
        fill: #fff;
      }
    </style>
  </defs>
  <g id="Layer_1-2" data-name="Layer 1">
    <g>
      <circle class="cls-2" cx="187" cy="187" r="187"/>
      <g>
        <path class="cls-1" d="M326.29,183.31c.02-5.57-.03-10.7-.19-16.84-.5-19.13-1.58-28.35-3.16-36.84-2.05-11-3.92-15.29-6.32-18.95-5.78-8.8-13.9-12.81-17.91-14.74-6.59-3.16-12.02-4.14-38.99-5.26-21.04-.88-35.87-1.03-37.94-1.05-12.6-.12-30.56,0-30.56,0h-8.44s-17.96-.12-30.57,0c-2.06.02-16.89.18-37.94,1.05-26.97,1.12-32.4,2.1-38.99,5.26-4.01,1.92-12.13,5.94-17.91,14.74-2.41,3.66-4.27,7.95-6.32,18.95-1.58,8.5-2.66,17.71-3.16,36.84-.16,6.14-.21,11.27-.19,16.84v7.37c-.02,5.57.03,10.7.19,16.84.5,19.13,1.58,28.35,3.16,36.84,2.05,11,3.92,15.29,6.32,18.95,5.78,8.8,13.9,12.81,17.91,14.74,6.59,3.16,12.02,4.14,38.99,5.26,21.04.88,35.87,1.03,37.94,1.05,12.6.12,23.11.07,30.56,0h8.44c7.45.07,17.96.12,30.56,0,2.06-.02,16.89-.18,37.94-1.05,26.97-1.12,32.4-2.1,38.99-5.26,4.01-1.92,12.13-5.94,17.91-14.74,2.41-3.66,4.27-7.95,6.32-18.95,1.58-8.5,2.66-17.71,3.16-36.84.16-6.14.21-11.27.19-16.84v-7.37Z"/>
        <polygon class="cls-2" points="160.24 144.62 160.24 228.98 233.26 186.88 160.24 144.62"/>
      </g>
    </g>
  </g>
</svg>